<?xml version="1.0" standalone="no"?>
<!DOCTYPE svg PUBLIC "-//W3C//DTD SVG 20010904//EN"
 "http://www.w3.org/TR/2001/REC-SVG-20010904/DTD/svg10.dtd">
<svg version="1.0" xmlns="http://www.w3.org/2000/svg"
 width="512.000000pt" height="512.000000pt" viewBox="0 0 512.000000 512.000000"
 preserveAspectRatio="xMidYMid meet">
<metadata>
Created by potrace 1.16, written by Peter Selinger 2001-2019
</metadata>
<g transform="translate(0.000000,512.000000) scale(0.100000,-0.100000)"
fill="#000000" stroke="none">
<path d="M2230 5104 c-742 -95 -1409 -516 -1823 -1149 -216 -331 -355 -723
-397 -1122 -18 -165 -8 -535 19 -689 97 -566 350 -1043 763 -1439 374 -360
852 -596 1373 -680 137 -23 522 -31 668 -15 479 52 923 231 1307 528 117 91
316 287 413 407 276 342 459 746 537 1186 28 156 39 531 21 702 -43 399 -182
790 -398 1122 -98 150 -184 257 -318 394 -419 430 -948 690 -1550 760 -123 15
-487 12 -615 -5z m660 -269 c497 -75 933 -296 1291 -654 361 -361 577 -791
656 -1301 24 -159 24 -482 -1 -640 -42 -276 -130 -544 -251 -766 -352 -646
-971 -1078 -1705 -1191 -158 -24 -482 -24 -640 0 -667 103 -1240 468 -1602
1022 -183 278 -302 594 -355 935 -24 159 -24 482 1 640 62 398 208 747 449
1069 93 125 315 347 442 441 358 268 763 422 1215 464 89 8 397 -4 500 -19z"/>
<path d="M2893 3580 c-27 -11 -1050 -906 -1081 -945 -30 -38 -30 -112 0 -151
12 -15 258 -234 546 -486 547 -479 548 -479 621 -463 38 8 88 64 96 108 14 71
3 82 -482 506 -252 221 -458 406 -458 411 0 5 206 190 458 411 344 300 462
410 474 436 20 49 10 96 -30 140 -26 28 -42 36 -77 39 -25 2 -55 0 -67 -6z"/>
</g>
</svg>
