<?xml version="1.0" standalone="no"?>
<!DOCTYPE svg PUBLIC "-//W3C//DTD SVG 20010904//EN"
 "http://www.w3.org/TR/2001/REC-SVG-20010904/DTD/svg10.dtd">
<svg version="1.0" xmlns="http://www.w3.org/2000/svg"
 width="512.000000pt" height="512.000000pt" viewBox="0 0 512.000000 512.000000"
 preserveAspectRatio="xMidYMid meet">
<metadata>
Created by potrace 1.16, written by Peter Selinger 2001-2019
</metadata>
<g transform="translate(0.000000,512.000000) scale(0.100000,-0.100000)"
fill="#000000" stroke="none">
<path d="M2235 5105 c-469 -64 -885 -237 -1255 -523 -117 -91 -316 -287 -413
-407 -276 -342 -459 -746 -537 -1186 -28 -156 -39 -531 -21 -702 43 -399 182
-790 398 -1122 98 -150 184 -257 318 -394 419 -430 948 -690 1550 -760 134
-16 460 -13 605 4 748 93 1416 512 1833 1150 216 331 355 723 397 1122 18 165
8 535 -19 689 -97 566 -350 1043 -763 1439 -374 360 -849 595 -1373 681 -138
22 -582 28 -720 9z m655 -270 c654 -99 1232 -469 1592 -1020 183 -278 302
-594 355 -935 24 -159 24 -482 -1 -640 -79 -511 -296 -941 -656 -1300 -360
-361 -789 -577 -1301 -657 -157 -24 -480 -24 -639 0 -510 79 -940 295 -1301
656 -361 361 -577 791 -656 1301 -24 159 -24 482 1 640 91 590 379 1096 836
1470 190 156 466 306 715 388 191 64 328 92 560 116 80 8 393 -4 495 -19z"/>
<path d="M2124 3580 c-31 -12 -72 -66 -79 -104 -14 -70 -2 -82 482 -505 252
-221 458 -406 458 -411 0 -5 -206 -190 -458 -411 -344 -300 -462 -410 -474
-436 -40 -97 51 -201 156 -178 22 5 192 147 554 464 287 251 533 470 545 485
30 39 30 113 0 151 -35 44 -1056 935 -1084 945 -30 12 -71 12 -100 0z"/>
</g>
</svg>
